<svg xmlns="http://www.w3.org/2000/svg" viewBox="0 0 505.39 447.62"><defs><style>.cls-1{fill:#a0493d;}.cls-2{fill:#8c3025;}.cls-14,.cls-17,.cls-3,.cls-6{fill:none;}.cls-3,.cls-7{stroke:#b73a26;}.cls-11,.cls-12,.cls-13,.cls-14,.cls-15,.cls-16,.cls-17,.cls-3,.cls-6,.cls-7,.cls-8,.cls-9{stroke-miterlimit:10;}.cls-11,.cls-12,.cls-13,.cls-14,.cls-15,.cls-16,.cls-17,.cls-3,.cls-6,.cls-7,.cls-8{stroke-width:4px;}.cls-4{fill:#58b947;}.cls-5{fill:#449b45;}.cls-6{stroke:#449b45;}.cls-7{fill:#7f2d19;}.cls-8{fill:#2c9069;stroke:#2c9069;}.cls-9{fill:#1d84c6;stroke:#2a93cd;stroke-width:5px;}.cls-10,.cls-12{fill:#595881;}.cls-11{fill:#7a788e;}.cls-11,.cls-12,.cls-13,.cls-14,.cls-15{stroke:#3b3b3b;}.cls-13{fill:#8d95b2;}.cls-15{fill:#4e4a73;}.cls-16{fill:#e38230;stroke:#ba6028;}.cls-17{stroke:#8c3025;}</style></defs><g id="CubeAlt"><polygon class="cls-1" points="2 123.43 206.04 241.23 206.04 445.31 2 328.28 2 123.43"/><polygon class="cls-2" points="409.3 123.43 205.26 241.23 205.26 445.31 409.3 328.28 409.3 123.43"/></g><g id="Cube"><polygon class="cls-3" points="206.04 241.23 2 123.43 2 328.28 206.04 445.31 410.08 328.28 410.08 123.43 206.04 241.23"/><polygon class="cls-4" points="409.82 120.58 206.04 2.31 2.27 120.58 206.04 238.23 409.82 120.58"/><polygon class="cls-5" points="409.82 120.58 206.04 238.23 2.27 120.58 2 120.43 2 172.84 16.5 181.21 16.5 190.88 34.06 201.01 34.06 182.95 51.36 192.94 51.36 202.1 78.83 217.96 78.83 226.86 97.15 237.44 97.15 228.79 116.23 239.81 116.23 248.46 133.03 258.15 133.03 231.95 150.58 242.08 150.58 259.89 169.66 270.91 169.66 279.3 186.45 289 186.45 280.35 206.04 291.66 225.63 280.35 225.63 289 242.42 279.3 242.42 270.91 261.5 259.89 261.5 242.08 279.06 231.95 279.06 258.15 295.85 248.46 295.85 239.81 314.93 228.79 314.93 237.44 333.25 226.86 333.25 217.96 360.73 202.1 360.73 192.94 378.03 182.95 378.03 201.01 395.58 190.88 395.58 181.21 410.08 172.84 410.08 120.43 409.82 120.58"/><polygon class="cls-6" points="2 172.84 2 120.43 206.04 2.31 410.08 120.43 410.08 172.84 395.58 181.21 395.58 190.88 378.03 201.01 378.03 182.95 360.73 192.94 360.73 202.1 333.25 217.96 333.25 226.86 314.93 237.44 314.93 228.79 295.85 239.81 295.85 248.46 279.06 258.15 279.06 231.95 261.5 242.08 261.5 259.89 242.42 270.91 242.42 279.3 225.63 289 225.63 280.35 206.04 291.66 186.45 280.35 186.45 289 169.66 279.3 169.66 270.91 150.58 259.89 150.58 242.08 133.03 231.95 133.03 258.15 116.23 248.46 116.23 239.81 97.15 228.79 97.15 237.44 78.83 226.86 78.83 217.96 51.36 202.1 51.36 192.94 34.06 182.95 34.06 201.01 16.5 190.88 16.5 181.21 2 172.84"/><path class="cls-7" d="M63.39,200.92" transform="translate(-61.39 -77.49)"/></g><g id="GrassAlt"><polygon class="cls-8" points="208 239.41 208.03 290.51 225.63 280.35 225.63 289 242.42 279.3 242.42 270.91 261.5 259.89 261.5 242.08 279.06 231.95 279.06 258.15 295.85 248.46 295.85 239.81 314.93 228.79 314.93 237.44 333.25 226.86 333.25 217.96 360.73 202.1 360.73 192.94 378.03 182.95 378.03 201.01 395.58 190.88 395.58 181.21 410.08 172.84 410.08 122.76 208 239.41"/></g><g id="Lake"><polygon class="cls-9" points="180.88 115.02 210.14 98.12 221.74 104.82 280.26 71.03 324.88 96.79 305.74 107.84 350.64 133.76 282 173.39 254.72 157.64 242.82 164.51 193.84 136.23 205.73 129.36 180.88 115.02"/></g><g id="Stairs"><polyline class="cls-10" points="296.07 286.06 295.93 228.84 263.76 247.5 263.76 267.5"/><polyline class="cls-11" points="263.76 304.71 263.76 267.5 296.07 286.15"/><polyline class="cls-12" points="118.05 83.43 118 98.83 146.11 115.03 159.45 107.33"/><polyline class="cls-13" points="133.71 74.39 118.05 83.43 159.45 107.33 175.11 98.29"/><polygon class="cls-13" points="118 98.83 106.46 105.52 134.52 121.72 146.11 115.03 118 98.83"/><path class="cls-14" d="M167.85,183" transform="translate(-61.39 -77.49)"/><polyline class="cls-12" points="133.44 145.76 119.25 154.47 110.26 149.28 133.24 135.08"/><polyline class="cls-13" points="106.46 117.27 81.04 132.41 110.26 149.28 134.74 134.16"/><polyline class="cls-12" points="106.46 117.27 133.71 132.41 133.44 121.1 106.46 105.52"/><polygon class="cls-15" points="118.05 83.43 118 98.83 106.46 105.52 106.46 117.27 81.04 132.41 57.13 118.6 118.05 83.43"/><polyline class="cls-12" points="142.69 158.61 135.07 163.6 128.64 159.89 142.69 150.85"/><polyline class="cls-12" points="154.14 174.61 146.58 170.25 154.14 165.29"/><polyline class="cls-13" points="142.69 158.61 135.07 163.6 146.58 170.25 154.14 165.29"/><polyline class="cls-13" points="133.44 145.76 119.25 154.47 128.64 159.89 142.69 150.85"/><polygon class="cls-15" points="133.44 121.1 133.44 145.76 142.69 150.85 142.69 158.61 154.14 165.29 154.14 174.61 163.73 180.15 198.83 158.85 133.44 121.1"/></g><g id="Bridge"><polyline class="cls-14" points="133.71 74.39 57.13 118.6 163.73 180.15 198.83 158.85 134.52 121.72 175.11 98.29"/><polygon class="cls-16" points="263.66 310.23 299.3 330.81 501.39 214.13 196.53 38.12 133.71 74.39 175.11 98.29 208.46 79.03 436.28 210.57 263.66 310.23"/><polygon class="cls-17" points="296.07 286.06 296.07 228.84 263.76 247.5 263.76 304.71 296.07 286.06"/><polyline class="cls-14" points="120.08 82.26 133.71 74.39 175.11 98.29 159.45 107.33"/></g></svg>